<?xml version="1.0" standalone="no"?>
<!DOCTYPE svg PUBLIC "-//W3C//DTD SVG 20010904//EN"
 "http://www.w3.org/TR/2001/REC-SVG-20010904/DTD/svg10.dtd">
<svg version="1.0" xmlns="http://www.w3.org/2000/svg"
 width="220.000000pt" height="218.000000pt" viewBox="0 0 220.000000 218.000000"
 preserveAspectRatio="xMidYMid meet">

<g transform="translate(0.000000,218.000000) scale(0.100000,-0.100000)"
fill="#000000" stroke="none">
<path d="M990 2134 c-230 -28 -436 -124 -599 -279 -218 -207 -325 -456 -325
-755 0 -299 107 -548 325 -755 198 -188 431 -279 709 -279 278 0 511 91 709
279 218 207 325 456 325 755 0 278 -91 511 -279 709 -148 156 -311 250 -520
302 -78 19 -273 32 -345 23z m281 -69 c222 -41 386 -131 542 -294 136 -144
226 -324 257 -512 13 -82 13 -236 0 -317 -61 -371 -335 -678 -705 -789 -83
-25 -104 -27 -265 -27 -162 0 -182 2 -265 28 -49 15 -114 38 -144 52 -134 61
-293 191 -389 319 -53 72 -117 205 -149 310 -25 83 -27 104 -27 265 0 161 2
182 27 265 53 176 157 344 287 462 47 43 172 128 229 158 158 81 414 114 602
80z"/>
<path d="M948 2030 c-114 -18 -275 -84 -378 -153 -66 -45 -186 -163 -236 -234
-56 -77 -116 -205 -146 -308 -19 -69 -22 -102 -22 -240 1 -144 4 -169 28 -249
98 -323 327 -553 653 -653 80 -25 102 -27 253 -27 151 0 172 2 255 28 354 107
597 374 671 737 24 119 15 303 -20 422 -98 329 -348 571 -681 661 -71 20 -295
29 -377 16z m491 -236 c101 -33 165 -74 205 -131 24 -34 30 -55 34 -116 5 -89
-6 -130 -53 -185 -63 -73 -194 -95 -251 -41 -32 30 -30 51 7 78 103 76 90 235
-24 305 -67 41 -192 48 -281 17 -153 -54 -262 -200 -302 -409 -20 -105 -20
-298 1 -387 38 -164 146 -321 262 -382 85 -44 141 -56 235 -51 131 7 218 55
299 165 23 30 47 53 58 53 26 0 71 -38 71 -59 0 -26 -111 -143 -176 -187 -84
-55 -158 -75 -304 -81 -105 -5 -138 -2 -205 15 -249 63 -418 229 -488 477 -11
42 -21 116 -24 186 -14 311 120 570 357 689 125 62 210 80 370 76 105 -3 138
-8 209 -32z"/>
</g>
</svg>
